<?xml version="1.0" encoding="utf-8"?>
<!-- Generator: Adobe Illustrator 16.0.0, SVG Export Plug-In . SVG Version: 6.00 Build 0)  -->
<!DOCTYPE svg PUBLIC "-//W3C//DTD SVG 1.1//EN" "http://www.w3.org/Graphics/SVG/1.1/DTD/svg11.dtd">
<svg version="1.1"
	 id="svg8" xmlns:svg="http://www.w3.org/2000/svg" xmlns:rdf="http://www.w3.org/1999/02/22-rdf-syntax-ns#" xmlns:dc="http://purl.org/dc/elements/1.1/" xmlns:inkscape="http://www.inkscape.org/namespaces/inkscape" xmlns:sodipodi="http://sodipodi.sourceforge.net/DTD/sodipodi-0.dtd" xmlns:cc="http://creativecommons.org/ns#" sodipodi:docname="drawing.svg" inkscape:version="1.0 (4035a4fb49, 2020-05-01)"
	 xmlns="http://www.w3.org/2000/svg" xmlns:xlink="http://www.w3.org/1999/xlink" x="0px" y="0px" width="155.905px"
	 height="155.906px" viewBox="167.143 295.714 155.905 155.906" enable-background="new 167.143 295.714 155.905 155.906"
	 xml:space="preserve">
<sodipodi:namedview  showgrid="false" pagecolor="#ffffff" bordercolor="#666666" inkscape:zoom="1.8720401" inkscape:cx="288.22421" inkscape:cy="567.04817" borderopacity="1.0" id="base" inkscape:window-width="1280" inkscape:document-rotation="0" inkscape:current-layer="layer1" inkscape:window-maximized="0" inkscape:pageshadow="2" inkscape:window-y="29" inkscape:pageopacity="0.0" inkscape:window-x="0" inkscape:window-height="967" inkscape:document-units="mm">
	</sodipodi:namedview>
<rect id="rect53" x="167.143" y="295.714" fill="#FF8C00" width="155.905" height="155.906"/>
<path id="path15" fill="#FFFFFF" fill-opacity="0.7604" stroke="#000000" stroke-width="0.2565" stroke-opacity="0.8958" d="
	M245.079,305.999c-37.373,0.011-67.661,30.306-67.651,67.668c0,0.014,0,0.023,0,0.036c0.011,37.362,30.313,67.643,67.685,67.633
	c37.372-0.012,67.661-30.306,67.65-67.668c0-0.011,0-0.022,0-0.036C312.752,336.27,282.45,305.989,245.079,305.999L245.079,305.999z
	"/>
<g id="g1418" transform="matrix(0.26458333,0,0,0.26458333,40.356541,51.064773)">
	<rect id="rect2679" x="607.162" y="1118.305" fill="#FF0000" width="333.311" height="47.597"/>
	<rect id="rect2681" x="748.953" y="988.293" fill="#FF0000" width="49.724" height="461.989"/>
	<polygon id="rect2683" fill="#FF0000" points="700.037,1323.437 700.056,1274.905 847.601,1326.253 847.576,1374.789 	"/>
	<polygon id="rect2685" fill="#FF0000" points="703.285,1070.118 703.584,1021.574 844.35,1022.763 844.043,1071.306 	"/>
</g>
<g>
	<g id="g89" transform="translate(57.099025,-59.784375)">
		<g id="g12" transform="matrix(0.26458333,0,0,0.26458333,43.469939,56.875689)">
			<path id="path1500" sodipodi:nodetypes="ccccc" d="M775.508,1569.078l-52.066,0.006v-11.204l52.03,0.057L775.508,1569.078z"/>
			<path id="path1502" sodipodi:nodetypes="cscscccccccssccccscccccccc" d="M811.044,1628.089c0,5.787-1,11.032-3.005,15.753
				c-2.004,4.71-4.702,8.541-8.079,11.483c-4.008,3.547-8.297,6.061-12.878,7.559c-4.569,1.51-10.486,2.255-17.728,2.255h-30.827
				l0.101-119.74h14.027l0.037,47.019h17.089c7.249,0,13.162,0.482,17.739,1.443c4.569,0.906,8.888,3.135,12.937,6.673
				c3.628,3.152,6.3,7.063,8.017,11.732C810.188,1616.916,811.044,1622.194,811.044,1628.089 M796.236,1628.41
				c0-4.023-0.594-7.559-1.783-10.608c-1.144-3.052-2.982-5.522-5.507-7.393c-2.624-1.982-5.651-3.185-9.087-3.617
				c-3.429-0.424-8.271-0.639-14.513-0.639h-12.66v45.399h12.298c6.337,0,11.198-0.339,14.59-1.044
				c3.433-0.701,6.433-2.034,9.017-4.016c2.665-2.089,4.595-4.529,5.787-7.312C795.616,1636.334,796.236,1632.743,796.236,1628.41"
				/>
		</g>
	</g>
	<g id="g89_1_" transform="translate(57.099025,-59.784375)">
		<g id="g12_1_" transform="matrix(0.26458333,0,0,0.26458333,43.469939,56.875689)">
			<path id="path1500_1_" sodipodi:nodetypes="ccccc" d="M688.272,1569.078l52.065,0.006v-11.204l-52.028,0.057L688.272,1569.078z"
				/>
			<path id="path1502_1_" sodipodi:nodetypes="cscscccccccssccccscccccccc" d="M652.734,1628.089c0,5.787,1.002,11.032,3.008,15.753
				c1.999,4.71,4.695,8.541,8.076,11.483c4.006,3.547,8.299,6.061,12.876,7.559c4.569,1.51,10.49,2.255,17.731,2.255h30.827
				l-0.102-119.74h-14.027l-0.039,47.019h-17.089c-7.249,0-13.162,0.482-17.739,1.443c-4.571,0.906-8.888,3.135-12.937,6.673
				c-3.628,3.152-6.301,7.063-8.015,11.732C653.588,1616.916,652.734,1622.194,652.734,1628.089 M667.54,1628.41
				c0-4.023,0.594-7.559,1.785-10.608c1.146-3.052,2.982-5.522,5.509-7.393c2.619-1.982,5.651-3.185,9.082-3.617
				c3.431-0.424,8.275-0.639,14.516-0.639h12.66v45.399h-12.3c-6.335,0-11.196-0.339-14.59-1.044
				c-3.431-0.701-6.431-2.034-9.013-4.016c-2.665-2.089-4.595-4.529-5.787-7.312C668.16,1636.334,667.54,1632.743,667.54,1628.41"/>
		</g>
	</g>
</g>
</svg>
