<?xml version="1.0" encoding="utf-8"?>
<!-- Generator: Adobe Illustrator 16.0.0, SVG Export Plug-In . SVG Version: 6.00 Build 0)  -->
<!DOCTYPE svg PUBLIC "-//W3C//DTD SVG 1.1//EN" "http://www.w3.org/Graphics/SVG/1.1/DTD/svg11.dtd">
<svg version="1.1"
	 id="svg10" xmlns:dc="http://purl.org/dc/elements/1.1/" xmlns:cc="http://creativecommons.org/ns#" xmlns:rdf="http://www.w3.org/1999/02/22-rdf-syntax-ns#" xmlns:svg="http://www.w3.org/2000/svg" xmlns:sodipodi="http://sodipodi.sourceforge.net/DTD/sodipodi-0.dtd" xmlns:inkscape="http://www.inkscape.org/namespaces/inkscape" sodipodi:docname="svc.svg" inkscape:version="1.0 (4035a4fb49, 2020-05-01)"
	 xmlns="http://www.w3.org/2000/svg" xmlns:xlink="http://www.w3.org/1999/xlink" x="0px" y="0px" width="95.104px"
	 height="87.714px" viewBox="0 -2.005 95.104 87.714" enable-background="new 0 -2.005 95.104 87.714" xml:space="preserve">
<sodipodi:namedview  units="mm" fit-margin-left="0" fit-margin-top="0" pagecolor="#ffffff" bordercolor="#666666" borderopacity="1" objecttolerance="10" gridtolerance="10" guidetolerance="10" showgrid="false" inkscape:cx="83.967571" inkscape:cy="29.447636" inkscape:zoom="5.7044825" id="namedview12" inkscape:current-layer="svg10" fit-margin-bottom="0" fit-margin-right="0" inkscape:document-units="mm" inkscape:document-rotation="0" inkscape:pageopacity="0" inkscape:pageshadow="2" inkscape:window-width="1218" inkscape:window-height="1002" inkscape:window-x="-8" inkscape:window-y="-8" inkscape:window-maximized="1">
	</sodipodi:namedview>
<g>
	<path id="path68" fill="#FF8C00" d="M23.191,0c-3.723,3.574-6.627,7.744-8.71,12.506c-2.087,4.766-3.13,9.569-3.13,14.407
		c0,4.617,1.64,10.797,4.915,18.542S21.18,59.04,21.18,62.99c0,7.22-1.789,14.033-5.362,20.435H4.316
		c5.213-6.401,7.816-13.029,7.816-19.878c0-1.487-2.196-8.376-6.588-20.661c-2.086-5.806-3.126-11.132-3.126-15.971
		c0-5.137,0.669-9.903,2.011-14.294C5.766,8.151,7.926,3.945,10.903,0H23.191z"/>
	<path id="path70" fill="#FF8C00" d="M61.512,0L44.538,83.424L27.451,0h9.38l7.708,42.13L52.354,0H61.512z"/>
	<path id="path72" fill="#FF8C00" d="M92.978,83.424H79.8c-5.286-5.878-9.307-12.393-12.063-19.545
		c-2.756-7.146-4.134-14.592-4.134-22.336C63.603,26.281,69.002,12.434,79.8,0h13.179C79.353,11.987,72.54,25.87,72.54,41.656
		c0,8.265,1.64,15.749,4.915,22.449C80.73,70.806,85.904,77.248,92.978,83.424z"/>
</g>
<g id="g162" transform="matrix(3.4903282,0,0,3.4903282,-5.0578695,-210.69002)">
	<path id="path148" fill="#FF8C00" d="M3.782,42.646c0,0.545,0.062,1.057,0.187,1.536C4.1,44.66,4.277,45.083,4.498,45.45
		c0.228,0.356,0.491,0.64,0.789,0.851c0.298,0.2,0.616,0.3,0.955,0.3c0.568,0,1.1,0.172,1.598,0.517
		c0.498,0.345,0.931,0.818,1.298,1.419c0.374,0.59,0.668,1.285,0.882,2.087c0.215,0.801,0.322,1.658,0.322,2.571
		c0,0.912-0.107,1.769-0.322,2.57c-0.214,0.802-0.509,1.502-0.882,2.104c-0.367,0.59-0.799,1.056-1.298,1.401
		C7.342,59.618,6.81,59.79,6.242,59.79h-4.1v-2.638h4.1c0.339,0,0.657-0.1,0.955-0.3C7.495,56.64,7.754,56.356,7.976,56
		c0.228-0.367,0.405-0.79,0.529-1.269c0.132-0.478,0.197-0.99,0.197-1.535c0-0.545-0.066-1.057-0.197-1.536
		c-0.125-0.479-0.301-0.896-0.529-1.252c-0.221-0.367-0.481-0.651-0.779-0.851C6.9,49.346,6.581,49.24,6.242,49.24
		c-0.568,0-1.1-0.173-1.598-0.518c-0.498-0.345-0.934-0.812-1.308-1.402c-0.367-0.601-0.657-1.302-0.872-2.103
		c-0.214-0.801-0.322-1.658-0.322-2.571c0-0.913,0.107-1.77,0.322-2.571c0.215-0.801,0.505-1.497,0.872-2.087
		c0.374-0.601,0.81-1.074,1.308-1.419c0.498-0.345,1.031-0.517,1.598-0.517h4.1v2.637h-4.1c-0.339,0-0.657,0.105-0.955,0.317
		c-0.298,0.2-0.561,0.484-0.789,0.851C4.277,40.214,4.1,40.631,3.969,41.11C3.844,41.589,3.782,42.101,3.782,42.646z"/>
	<path id="path150" fill="#FF8C00" d="M12.838,36.052l2.46,17.361l2.46-17.361h1.641l-3.28,23.737h-1.64l-3.28-23.737H12.838z"/>
	<path id="path152" fill="#FF8C00" d="M23.841,38.69c-0.353,0-0.682,0.105-0.986,0.317c-0.304,0.2-0.567,0.484-0.789,0.851
		c-0.221,0.356-0.398,0.773-0.529,1.252c-0.125,0.479-0.187,0.991-0.187,1.536v10.55c0,0.545,0.062,1.057,0.187,1.535
		c0.132,0.479,0.308,0.902,0.529,1.269c0.222,0.356,0.485,0.64,0.789,0.851c0.305,0.2,0.633,0.3,0.986,0.3
		c0.29,0,0.564-0.061,0.82-0.184c0.256-0.133,0.488-0.317,0.696-0.551c0.214-0.233,0.398-0.512,0.55-0.835
		c0.159-0.323,0.28-0.678,0.363-1.068h1.64c-0.097,0.757-0.267,1.458-0.508,2.103c-0.242,0.645-0.543,1.202-0.903,1.669
		c-0.353,0.468-0.754,0.835-1.204,1.102c-0.45,0.267-0.934,0.4-1.453,0.4c-0.581,0-1.125-0.173-1.63-0.518
		c-0.499-0.345-0.934-0.812-1.308-1.401c-0.374-0.601-0.668-1.302-0.882-2.104c-0.207-0.801-0.311-1.658-0.311-2.57v-10.55
		c0-0.913,0.104-1.77,0.311-2.571c0.214-0.801,0.509-1.497,0.882-2.087c0.374-0.601,0.81-1.074,1.308-1.419
		c0.505-0.345,1.048-0.517,1.63-0.517c0.519,0,1.003,0.134,1.453,0.401c0.456,0.267,0.861,0.64,1.214,1.118
		c0.353,0.467,0.651,1.024,0.893,1.669c0.242,0.645,0.412,1.341,0.508,2.087h-1.64c-0.083-0.378-0.204-0.729-0.363-1.051
		c-0.152-0.323-0.332-0.601-0.54-0.835c-0.208-0.234-0.443-0.417-0.706-0.551C24.405,38.756,24.132,38.69,23.841,38.69z"/>
</g>
</svg>
