<?xml version="1.0" encoding="utf-8"?>
<!-- Generator: Adobe Illustrator 16.0.0, SVG Export Plug-In . SVG Version: 6.00 Build 0)  -->
<!DOCTYPE svg PUBLIC "-//W3C//DTD SVG 1.1//EN" "http://www.w3.org/Graphics/SVG/1.1/DTD/svg11.dtd">
<svg version="1.1"
	 id="Layer_1" xmlns:dc="http://purl.org/dc/elements/1.1/" xmlns:cc="http://creativecommons.org/ns#" xmlns:rdf="http://www.w3.org/1999/02/22-rdf-syntax-ns#" xmlns:svg="http://www.w3.org/2000/svg" xmlns:sodipodi="http://sodipodi.sourceforge.net/DTD/sodipodi-0.dtd" xmlns:inkscape="http://www.inkscape.org/namespaces/inkscape" inkscape:version="1.0 (4035a4fb49, 2020-05-01)" sodipodi:docname="svc-scheme-3.svg"
	 xmlns="http://www.w3.org/2000/svg" xmlns:xlink="http://www.w3.org/1999/xlink" x="0px" y="0px" width="566.93px"
	 height="246.725px" viewBox="0 0 566.93 246.725" enable-background="new 0 0 566.93 246.725" xml:space="preserve">
<sodipodi:namedview  pagecolor="#ffffff" bordercolor="#666666" borderopacity="1" objecttolerance="10" gridtolerance="10" guidetolerance="10" showgrid="false" inkscape:cx="288.09628" inkscape:cy="121.35245" inkscape:zoom="1.6487807" id="namedview699" inkscape:pageopacity="0" inkscape:pageshadow="2" inkscape:window-width="1280" inkscape:window-height="1004" inkscape:window-maximized="1" inkscape:current-layer="Layer_1" inkscape:document-rotation="0" inkscape:window-x="1276" inkscape:window-y="-4">
	</sodipodi:namedview>
<rect id="rect2" x="0" y="0.056" fill="#C4C4C4" width="566.93" height="246.613"/>
<text transform="matrix(1 0 0 1 99.6028 14.4983)" fill="#222221" font-family="'Arial-BoldMT'" font-size="9">SERI</text>
<text transform="matrix(1 0 0 1 120.6086 14.4983)" fill="#222221" font-family="'Arial-BoldMT'" font-size="9">A</text>
<text transform="matrix(1 0 0 1 126.7747 14.4983)" fill="#222221" font-family="'Arial-BoldMT'" font-size="9"> </text>
<text id="text12" transform="matrix(1 0 0 1 129.2756 14.4983)" fill="#222221" font-family="'ArialMT'" font-size="9">(V)</text>
<rect id="rect14" x="113.921" y="21.154" fill="#FFF49D" width="15.795" height="10.34"/>
<text id="text16" transform="matrix(1 0 0 1 114.5925 29.9641)" fill="#222221" font-family="'ArialMT'" font-size="10">hdr</text>
<rect id="rect18" x="113.921" y="21.154" fill="none" stroke="#222221" width="15.795" height="10.34"/>
<rect id="rect20" x="113.921" y="31.783" fill="#9BCDF2" width="15.795" height="10.339"/>
<rect id="rect22" x="113.921" y="31.783" fill="none" stroke="#222221" width="15.795" height="10.339"/>
<rect id="rect24" x="113.921" y="42.414" fill="#9BCDF2" width="15.795" height="10.339"/>
<rect id="rect26" x="113.921" y="42.414" fill="none" stroke="#222221" width="15.795" height="10.339"/>
<rect id="rect28" x="113.921" y="53.044" fill="#9BCDF2" width="15.795" height="10.339"/>
<rect id="rect30" x="113.921" y="53.044" fill="none" stroke="#222221" width="15.795" height="10.339"/>
<rect id="rect32" x="113.921" y="63.674" fill="#9BCDF2" width="15.795" height="10.339"/>
<rect id="rect34" x="113.921" y="63.674" fill="none" stroke="#222221" width="15.795" height="10.339"/>
<rect id="rect36" x="113.921" y="74.302" fill="#9BCDF2" width="15.795" height="10.339"/>
<rect id="rect38" x="113.921" y="74.302" fill="none" stroke="#222221" width="15.795" height="10.339"/>
<rect id="rect40" x="113.921" y="84.862" fill="#9BCDF2" width="15.795" height="10.34"/>
<rect id="rect42" x="113.921" y="84.862" fill="none" stroke="#222221" width="15.795" height="10.34"/>
<rect id="rect44" x="113.921" y="95.491" fill="#9BCDF2" width="15.795" height="10.339"/>
<rect id="rect46" x="113.921" y="95.491" fill="none" stroke="#222221" width="15.795" height="10.339"/>
<rect id="rect48" x="113.921" y="106.122" fill="#9BCDF2" width="15.795" height="10.339"/>
<rect id="rect50" x="113.921" y="106.122" fill="none" stroke="#222221" width="15.795" height="10.339"/>
<rect id="rect52" x="113.921" y="127.264" fill="#9BCDF2" width="15.795" height="10.339"/>
<rect id="rect54" x="113.921" y="127.264" fill="none" stroke="#222221" width="15.795" height="10.339"/>
<rect id="rect56" x="113.921" y="148.665" fill="#9BCDF2" width="15.795" height="10.34"/>
<rect id="rect58" x="113.921" y="148.665" fill="none" stroke="#222221" width="15.795" height="10.34"/>
<rect id="rect60" x="113.921" y="159.296" fill="#9BCDF2" width="15.795" height="10.338"/>
<rect id="rect62" x="113.921" y="159.296" fill="none" stroke="#222221" width="15.795" height="10.338"/>
<rect id="rect64" x="113.921" y="169.783" fill="#9BCDF2" width="15.795" height="10.339"/>
<rect id="rect66" x="113.921" y="169.783" fill="none" stroke="#222221" width="15.795" height="10.339"/>
<rect id="rect68" x="113.921" y="116.752" fill="#9BCDF2" width="15.795" height="10.339"/>
<rect id="rect70" x="113.921" y="116.752" fill="none" stroke="#222221" width="15.795" height="10.339"/>
<rect id="rect72" x="113.921" y="137.894" fill="#9BCDF2" width="15.795" height="10.339"/>
<rect id="rect74" x="113.921" y="137.894" fill="none" stroke="#222221" width="15.795" height="10.339"/>
<rect id="rect76" x="109.929" y="17.375" fill="none" stroke="#222221" width="23.897" height="168.417"/>
<g id="g88">
	<g>
		<defs>
			<rect id="SVGID_1_" x="0" y="0.056" width="566.93" height="246.613"/>
		</defs>
		<clipPath id="SVGID_2_">
			<use xlink:href="#SVGID_1_"  overflow="visible"/>
		</clipPath>
		<path id="path84" inkscape:connector-curvature="0" clip-path="url(#SVGID_2_)" fill="#FFF8C8" d="M423.751,12.258c0,0-11,0-11,11
			v2.067c0,0,0,11,11,11h113.563c0,0,11,0,11-11v-2.067c0,0,0-11-11-11H423.751z"/>
	</g>
	<g>
		<defs>
			<rect id="SVGID_3_" x="0" y="0.056" width="566.93" height="246.613"/>
		</defs>
		<clipPath id="SVGID_4_">
			<use xlink:href="#SVGID_3_"  overflow="visible"/>
		</clipPath>
		
			<path id="path86" inkscape:connector-curvature="0" clip-path="url(#SVGID_4_)" fill="none" stroke="#222221" stroke-width="0.5" d="
			M423.751,12.258c0,0-11,0-11,11v2.067c0,0,0,11,11,11h113.563c0,0,11,0,11-11v-2.067c0,0,0-11-11-11H423.751z"/>
	</g>
</g>
<text transform="matrix(1 0 0 1 465.3611 22.3987)" fill="#222221" font-family="'Arial-BoldMT'" font-size="12">SVC</text>
<text transform="matrix(1 0 0 1 417.7498 32.97)" fill="#222221" font-family="'ArialMT'" font-size="9">Seria values collect &amp; barcodes</text>
<line id="line94" fill="none" stroke="#222221" x1="413.681" y1="24.292" x2="548.799" y2="24.292"/>
<text id="text96" transform="matrix(1 0 0 1 167.6184 63.5374)" fill="#222221" font-family="'Arial-BoldMT'" font-size="9">COLECTION</text>
<text id="text98" transform="matrix(1 0 0 1 220.6194 63.5374)" fill="#222221" font-family="'ArialMT'" font-size="9"> (K*R=V)</text>
<polygon id="polygon100" fill="#222221" points="202.312,114.694 202.312,113.153 200.056,113.153 200.056,110.92 198.556,110.92 
	198.556,113.153 196.306,113.153 196.306,114.694 198.556,114.694 198.556,116.926 200.056,116.926 200.056,114.694 "/>
<path id="path102" inkscape:connector-curvature="0" fill="#222221" d="M263.722,113.256h-1.646v1.646h1.646V113.256z
	 M260.388,113.256h-1.646v1.646h1.646V113.256z M257.054,113.256h-1.646v1.646h1.646V113.256z"/>
<rect id="rect104" x="158.072" y="66.981" fill="none" stroke="#222221" width="112.138" height="90.417"/>
<rect id="rect106" x="162.63" y="70.76" fill="#FFF49D" width="15.795" height="10.339"/>
<text id="text108" transform="matrix(1 0 0 1 163.301 79.5696)" fill="#222221" font-family="'ArialMT'" font-size="10">hdr</text>
<rect id="rect110" x="162.63" y="70.76" fill="none" stroke="#222221" width="15.795" height="10.339"/>
<rect id="rect112" x="162.63" y="81.39" fill="#9BCDF2" width="15.795" height="10.339"/>
<rect id="rect114" x="162.63" y="81.39" fill="none" stroke="#222221" width="15.795" height="10.339"/>
<rect id="rect116" x="162.63" y="92.02" fill="#9BCDF2" width="15.795" height="10.339"/>
<rect id="rect118" x="162.63" y="92.02" fill="none" stroke="#222221" width="15.795" height="10.339"/>
<rect id="rect120" x="162.63" y="102.65" fill="#9BCDF2" width="15.795" height="10.34"/>
<rect id="rect122" x="162.63" y="102.65" fill="none" stroke="#222221" width="15.795" height="10.34"/>
<rect id="rect124" x="162.63" y="113.281" fill="#9BCDF2" width="15.795" height="10.339"/>
<rect id="rect126" x="162.63" y="113.281" fill="none" stroke="#222221" width="15.795" height="10.339"/>
<rect id="rect128" x="162.63" y="123.909" fill="#9BCDF2" width="15.795" height="10.34"/>
<rect id="rect130" x="162.63" y="123.909" fill="none" stroke="#222221" width="15.795" height="10.34"/>
<rect id="rect132" x="162.63" y="134.468" fill="#9BCDF2" width="15.795" height="10.34"/>
<rect id="rect134" x="162.63" y="134.468" fill="none" stroke="#222221" width="15.795" height="10.34"/>
<rect id="rect136" x="203.425" y="70.76" fill="#FFF49D" width="15.796" height="10.339"/>
<text id="text138" transform="matrix(1 0 0 1 204.0969 79.5696)" fill="#222221" font-family="'ArialMT'" font-size="10">hdr</text>
<rect id="rect140" x="203.425" y="70.76" fill="none" stroke="#222221" width="15.796" height="10.339"/>
<rect id="rect142" x="203.425" y="81.39" fill="#9BCDF2" width="15.796" height="10.339"/>
<rect id="rect144" x="203.425" y="81.39" fill="none" stroke="#222221" width="15.796" height="10.339"/>
<rect id="rect146" x="203.425" y="92.02" fill="#9BCDF2" width="15.796" height="10.339"/>
<rect id="rect148" x="203.425" y="92.02" fill="none" stroke="#222221" width="15.796" height="10.339"/>
<rect id="rect150" x="203.425" y="102.65" fill="#9BCDF2" width="15.796" height="10.34"/>
<rect id="rect152" x="203.425" y="102.65" fill="none" stroke="#222221" width="15.796" height="10.34"/>
<rect id="rect154" x="203.425" y="113.281" fill="#9BCDF2" width="15.796" height="10.339"/>
<rect id="rect156" x="203.425" y="113.281" fill="none" stroke="#222221" width="15.796" height="10.339"/>
<rect id="rect158" x="203.425" y="123.909" fill="#9BCDF2" width="15.796" height="10.34"/>
<rect id="rect160" x="203.425" y="123.909" fill="none" stroke="#222221" width="15.796" height="10.34"/>
<rect id="rect162" x="203.425" y="134.468" fill="#9BCDF2" width="15.796" height="10.34"/>
<rect id="rect164" x="203.425" y="134.468" fill="none" stroke="#222221" width="15.796" height="10.34"/>
<rect id="rect166" x="177.914" y="70.76" fill="#FFF49D" width="15.795" height="10.339"/>
<text id="text168" transform="matrix(1 0 0 1 178.5852 79.5696)" fill="#222221" font-family="'ArialMT'" font-size="10">hdr</text>
<rect id="rect170" x="177.914" y="70.76" fill="none" stroke="#222221" width="15.795" height="10.339"/>
<rect id="rect172" x="177.914" y="81.39" fill="#9BCDF2" width="15.795" height="10.339"/>
<rect id="rect174" x="177.914" y="81.39" fill="none" stroke="#222221" width="15.795" height="10.339"/>
<rect id="rect176" x="177.914" y="92.02" fill="#9BCDF2" width="15.795" height="10.339"/>
<rect id="rect178" x="177.914" y="92.02" fill="none" stroke="#222221" width="15.795" height="10.339"/>
<rect id="rect180" x="177.914" y="102.65" fill="#9BCDF2" width="15.795" height="10.34"/>
<rect id="rect182" x="177.914" y="102.65" fill="none" stroke="#222221" width="15.795" height="10.34"/>
<rect id="rect184" x="177.914" y="113.281" fill="#9BCDF2" width="15.795" height="10.339"/>
<rect id="rect186" x="177.914" y="113.281" fill="none" stroke="#222221" width="15.795" height="10.339"/>
<rect id="rect188" x="177.914" y="123.909" fill="#9BCDF2" width="15.795" height="10.34"/>
<rect id="rect190" x="177.914" y="123.909" fill="none" stroke="#222221" width="15.795" height="10.34"/>
<rect id="rect192" x="177.914" y="134.468" fill="#9BCDF2" width="15.795" height="10.34"/>
<rect id="rect194" x="177.914" y="134.468" fill="none" stroke="#222221" width="15.795" height="10.34"/>
<rect id="rect196" x="218.709" y="70.76" fill="#FFF49D" width="15.795" height="10.339"/>
<text id="text198" transform="matrix(1 0 0 1 219.3801 79.5696)" fill="#222221" font-family="'ArialMT'" font-size="10">hdr</text>
<rect id="rect200" x="218.709" y="70.76" fill="none" stroke="#222221" width="15.795" height="10.339"/>
<rect id="rect202" x="218.709" y="81.39" fill="#9BCDF2" width="15.795" height="10.339"/>
<rect id="rect204" x="218.709" y="81.39" fill="none" stroke="#222221" width="15.795" height="10.339"/>
<rect id="rect206" x="218.709" y="92.02" fill="#9BCDF2" width="15.795" height="10.339"/>
<rect id="rect208" x="218.709" y="92.02" fill="none" stroke="#222221" width="15.795" height="10.339"/>
<rect id="rect210" x="218.709" y="102.65" fill="#9BCDF2" width="15.795" height="10.34"/>
<rect id="rect212" x="218.709" y="102.65" fill="none" stroke="#222221" width="15.795" height="10.34"/>
<rect id="rect214" x="218.709" y="113.281" fill="#9BCDF2" width="15.795" height="10.339"/>
<rect id="rect216" x="218.709" y="113.281" fill="none" stroke="#222221" width="15.795" height="10.339"/>
<rect id="rect218" x="218.709" y="123.909" fill="#9BCDF2" width="15.795" height="10.34"/>
<rect id="rect220" x="218.709" y="123.909" fill="none" stroke="#222221" width="15.795" height="10.34"/>
<rect id="rect222" x="218.709" y="134.468" fill="#9BCDF2" width="15.795" height="10.34"/>
<rect id="rect224" x="218.709" y="134.468" fill="none" stroke="#222221" width="15.795" height="10.34"/>
<rect id="rect226" x="235.173" y="70.76" fill="#FFF49D" width="15.795" height="10.339"/>
<text id="text228" transform="matrix(1 0 0 1 235.845 79.5696)" fill="#222221" font-family="'ArialMT'" font-size="10">hdr</text>
<rect id="rect230" x="235.173" y="70.76" fill="none" stroke="#222221" width="15.795" height="10.339"/>
<rect id="rect232" x="235.173" y="81.39" fill="#9BCDF2" width="15.795" height="10.339"/>
<rect id="rect234" x="235.173" y="81.39" fill="none" stroke="#222221" width="15.795" height="10.339"/>
<rect id="rect236" x="235.173" y="92.02" fill="#9BCDF2" width="15.795" height="10.339"/>
<rect id="rect238" x="235.173" y="92.02" fill="none" stroke="#222221" width="15.795" height="10.339"/>
<rect id="rect240" x="235.173" y="102.65" fill="#9BCDF2" width="15.795" height="10.34"/>
<rect id="rect242" x="235.173" y="102.65" fill="none" stroke="#222221" width="15.795" height="10.34"/>
<rect id="rect244" x="235.173" y="113.281" fill="#9BCDF2" width="15.795" height="10.339"/>
<rect id="rect246" x="235.173" y="113.281" fill="none" stroke="#222221" width="15.795" height="10.339"/>
<rect id="rect248" x="235.173" y="123.909" fill="none" stroke="#222221" width="15.795" height="10.34"/>
<rect id="rect250" x="235.173" y="134.468" fill="none" stroke="#222221" width="15.795" height="10.34"/>
<line id="line252" fill="none" stroke="#222221" x1="141.166" y1="87.883" x2="157.779" y2="87.883"/>
<polygon id="polygon254" fill="#222221" points="156.229,90.435 163.241,87.883 156.229,85.331 "/>
<polyline id="polyline256" fill="none" stroke="#222221" points="142.299,151.378 193.464,150.952 197.716,148.118 "/>
<polygon id="polygon258" fill="#222221" points="197.843,151.102 202.262,145.089 195.012,146.856 "/>
<text transform="matrix(1 0 0 1 157.6799 175.2805)" fill="#222221" font-family="'Arial-BoldMT'" font-size="12">APPEND</text>
<text id="text262" transform="matrix(1 0 0 1 207.6848 175.2805)" fill="#222221" font-family="'Arial-BoldMT'" font-size="12"> values</text>
<text id="text264" transform="matrix(1 0 0 1 157.9915 187.2688)" fill="#222221" font-family="'ArialMT'" font-size="9">(set R,K,hd, add empty)</text>
<text id="text266" transform="matrix(1 0 0 1 253.0315 187.2688)" fill="#222221" font-family="'ArialMT'" font-size="9"> </text>
<g id="g276" transform="matrix(1.2677464,0,0,1,-41.051419,0)">
	<g>
		<defs>
			<rect id="SVGID_5_" x="-75.896" y="0.056" width="718.722" height="246.613"/>
		</defs>
		<clipPath id="SVGID_6_">
			<use xlink:href="#SVGID_5_"  overflow="visible"/>
		</clipPath>
		
			<path id="path274" inkscape:connector-curvature="0" clip-path="url(#SVGID_6_)" fill="none" stroke="#222221" stroke-width="0.5" d="
			M165.322,164.384c0,0-12,0-12,12v3.279c0,0,0,12,12,12h75.421c0,0,12,0,12-12v-3.279c0,0,0-12-12-12H165.322z"/>
	</g>
</g>
<polyline id="polyline278" fill="none" stroke="#222221" points="139.607,179.038 260.079,178.591 260.079,163.502 "/>
<polygon id="polygon280" fill="#222221" points="262.631,165.052 260.08,158.04 257.527,165.052 "/>
<g id="g290">
	<g>
		<defs>
			<rect id="SVGID_7_" x="0" y="0.056" width="566.93" height="246.613"/>
		</defs>
		<clipPath id="SVGID_8_">
			<use xlink:href="#SVGID_7_"  overflow="visible"/>
		</clipPath>
		<path id="path288" inkscape:connector-curvature="0" clip-path="url(#SVGID_8_)" fill="#AF1D1F" d="M136.772,182.7
			c2.349,0,4.252-1.902,4.252-4.252c0-2.349-1.903-4.253-4.252-4.253s-4.252,1.904-4.252,4.253
			C132.52,180.798,134.424,182.7,136.772,182.7"/>
	</g>
</g>
<rect id="rect292" x="359.756" y="136.194" fill="#9BCDF2" width="71.426" height="25.362"/>
<text transform="matrix(1 0 0 1 366.2029 152.1506)" fill="#222221" font-family="'ArialMT'" font-size="9">order-#.....indd</text>
<rect id="rect296" x="359.756" y="136.194" fill="none" stroke="#222221" width="71.426" height="25.362"/>
<text transform="matrix(1 0 0 1 457.1599 146.2483)" fill="#222221" font-family="'Arial-BoldMT'" font-size="12">MERGE</text>
<text transform="matrix(1 0 0 1 501.1638 146.2483)" fill="#222221" font-family="'Arial-BoldMT'" font-size="12"> </text>
<path id="path300" inkscape:connector-curvature="0" fill="#222221" d="M504.681,140.026h0.914v-0.469
	c0-0.522,0.057-0.914,0.168-1.172c0.11-0.258,0.315-0.468,0.615-0.63c0.299-0.162,0.676-0.243,1.133-0.243
	c0.469,0,0.928,0.07,1.377,0.211l-0.224,1.148c-0.262-0.063-0.514-0.095-0.756-0.095c-0.237,0-0.407,0.057-0.512,0.167
	c-0.104,0.111-0.156,0.325-0.156,0.643v0.438h1.23v1.295h-1.23v4.929h-1.646v-4.929h-0.914V140.026z M509.304,139.182v-1.522h1.646
	v1.522H509.304z M509.304,146.248v-6.224h1.646v6.224H509.304z M516.297,144.268l1.641,0.275c-0.211,0.602-0.543,1.06-0.998,1.374
	c-0.455,0.313-1.025,0.472-1.709,0.472c-1.082,0-1.883-0.354-2.402-1.061c-0.409-0.565-0.614-1.28-0.614-2.146
	c0-1.031,0.27-1.839,0.809-2.423s1.221-0.876,2.045-0.876c0.926,0,1.656,0.306,2.191,0.917s0.791,1.548,0.768,2.81H513.9
	c0.012,0.489,0.146,0.868,0.398,1.141c0.253,0.271,0.569,0.407,0.948,0.407c0.259,0,0.476-0.07,0.65-0.212
	C516.072,144.806,516.208,144.581,516.297,144.268L516.297,144.268z M516.39,142.604c-0.013-0.477-0.135-0.839-0.369-1.087
	s-0.521-0.372-0.855-0.372c-0.358,0-0.655,0.132-0.891,0.394c-0.234,0.262-0.35,0.618-0.346,1.065H516.39z M519.365,146.248v-8.59
	h1.646v8.59H519.365z M528.408,146.248h-1.528v-0.914c-0.255,0.354-0.554,0.62-0.898,0.794s-0.695,0.261-1.047,0.261
	c-0.715,0-1.326-0.288-1.836-0.864c-0.51-0.575-0.767-1.38-0.767-2.41c0-1.056,0.248-1.856,0.744-2.405s1.123-0.823,1.881-0.823
	c0.695,0,1.298,0.29,1.806,0.867v-3.094h1.646V146.248z M524.013,143.002c0,0.665,0.092,1.146,0.274,1.44
	c0.267,0.432,0.638,0.646,1.113,0.646c0.379,0,0.701-0.161,0.967-0.483c0.267-0.321,0.398-0.803,0.398-1.443
	c0-0.716-0.129-1.229-0.387-1.544c-0.259-0.315-0.589-0.473-0.99-0.473c-0.392,0-0.717,0.155-0.98,0.466
	C524.146,141.922,524.013,142.385,524.013,143.002z M529.453,144.473l1.652-0.252c0.07,0.32,0.213,0.563,0.428,0.729
	s0.517,0.249,0.902,0.249c0.426,0,0.746-0.078,0.961-0.234c0.145-0.108,0.217-0.255,0.217-0.439c0-0.125-0.039-0.229-0.117-0.311
	c-0.082-0.078-0.266-0.149-0.551-0.217c-1.328-0.293-2.17-0.561-2.525-0.804c-0.491-0.336-0.737-0.803-0.737-1.399
	c0-0.539,0.213-0.992,0.639-1.359c0.426-0.366,1.086-0.551,1.98-0.551c0.852,0,1.483,0.139,1.897,0.416
	c0.414,0.278,0.699,0.688,0.855,1.23l-1.554,0.286c-0.065-0.241-0.19-0.428-0.377-0.557c-0.186-0.129-0.451-0.193-0.795-0.193
	c-0.434,0-0.744,0.063-0.932,0.183c-0.125,0.086-0.188,0.197-0.188,0.334c0,0.117,0.056,0.217,0.164,0.299
	c0.148,0.109,0.662,0.264,1.539,0.463s1.488,0.443,1.836,0.732c0.345,0.293,0.517,0.701,0.517,1.225
	c0,0.571-0.238,1.062-0.716,1.471c-0.477,0.41-1.182,0.615-2.114,0.615c-0.849,0-1.519-0.172-2.013-0.516
	C529.929,145.531,529.605,145.063,529.453,144.473L529.453,144.473z"/>
<text id="text302" transform="matrix(1 0 0 1 471.0291 159.6555)" fill="#222221" font-family="'ArialMT'" font-size="9">(in Indesign)</text>
<text id="text304" transform="matrix(1 0 0 1 520.5544 159.6555)" fill="#222221" font-family="'ArialMT'" font-size="9"> </text>
<g id="g314">
	<g>
		<defs>
			<rect id="SVGID_9_" x="0" y="0.056" width="566.93" height="246.613"/>
		</defs>
		<clipPath id="SVGID_10_">
			<use xlink:href="#SVGID_9_"  overflow="visible"/>
		</clipPath>
		
			<path id="path312" inkscape:connector-curvature="0" clip-path="url(#SVGID_10_)" fill="none" stroke="#222221" stroke-width="0.5" d="
			M458.695,131.927c0,0-14.174,0-14.174,14.174v4.604c0,0,0,14.173,14.174,14.173h71.217c0,0,14.175,0,14.175-14.173v-4.604
			c0,0,0-14.174-14.175-14.174H458.695z"/>
	</g>
</g>
<line id="line316" fill="none" stroke="#222221" x1="556.832" y1="150.551" x2="435.443" y2="150.551"/>
<polygon id="polygon318" fill="#222221" points="436.992,147.999 429.98,150.551 436.992,153.103 "/>
<line id="line320" fill="none" stroke="#222221" x1="557.256" y1="85.615" x2="557.256" y2="145.066"/>
<polygon id="polygon322" fill="#222221" points="554.703,143.516 557.256,150.529 559.808,143.516 "/>
<rect id="rect324" x="417.724" y="71.941" fill="#9BCDF2" width="135.063" height="17.898"/>
<text id="text326" transform="matrix(1 0 0 1 455.4939 84.1663)" fill="#222221" font-family="'ArialMT'" font-size="9">order-#.ind.csv</text>
<rect id="rect328" x="417.724" y="71.941" fill="none" stroke="#222221" width="135.063" height="17.898"/>
<text transform="matrix(1 0 0 1 163.8157 25.0442)" fill="#222221" font-family="'Arial-BoldMT'" font-size="12">EXPORT</text>
<text id="text336" transform="matrix(1 0 0 1 211.1516 25.0442)" fill="#222221" font-family="'Arial-BoldMT'" font-size="12"> </text>
<text id="text338" transform="matrix(1 0 0 1 214.4875 25.0442)" fill="#222221" font-family="'Arial-BoldMT'" font-size="12">seria</text>
<text id="text340" transform="matrix(1 0 0 1 157.4788 36.4895)" fill="#222221" font-family="'ArialMT'" font-size="9">(set K, hdr from seria:</text>
<text id="text342" transform="matrix(1 0 0 1 262.0042 36.4895)" fill="#222221" font-family="'ArialMT'" font-size="9"> </text>
<text id="text344" transform="matrix(1 0 0 1 174.9065 47.2903)" fill="#222221" font-family="'ArialMT'" font-size="9">@order_kol_#)</text>
<text id="text346" transform="matrix(1 0 0 1 248.5676 47.2903)" fill="#222221" font-family="'ArialMT'" font-size="9"> </text>
<g id="g356">
	<g>
		<defs>
			<rect id="SVGID_11_" x="0" y="0.056" width="566.93" height="246.613"/>
		</defs>
		<clipPath id="SVGID_12_">
			<use xlink:href="#SVGID_11_"  overflow="visible"/>
		</clipPath>
		
			<path id="path354" inkscape:connector-curvature="0" clip-path="url(#SVGID_12_)" fill="none" stroke="#222221" stroke-width="0.5" d="
			M169.762,13.014c0,0-14.174,0-14.174,14.173v9.47c0,0,0,14.173,14.174,14.173h85.105c0,0,14.174,0,14.174-14.173v-9.47
			c0,0,0-14.173-14.174-14.173H169.762z"/>
	</g>
</g>
<polyline id="polyline358" fill="none" stroke="#222221" points="138.19,28.355 296.929,28.355 333.781,57.41 415.984,57.41 
	422.877,67.747 "/>
<polygon id="polygon360" fill="#222221" points="419.892,67.873 425.906,72.292 424.138,65.042 "/>
<g id="g370">
	<g>
		<defs>
			<rect id="SVGID_13_" x="0" y="0.056" width="566.93" height="246.613"/>
		</defs>
		<clipPath id="SVGID_14_">
			<use xlink:href="#SVGID_13_"  overflow="visible"/>
		</clipPath>
		<path id="path368" inkscape:connector-curvature="0" clip-path="url(#SVGID_14_)" fill="#303880" d="M136.347,32.465
			c2.348,0,4.252-1.904,4.252-4.252s-1.904-4.252-4.252-4.252c-2.35,0-4.252,1.904-4.252,4.252S133.999,32.465,136.347,32.465"/>
	</g>
</g>
<text transform="matrix(1 0 0 1 284.658 79.5403)" fill="#222221" font-family="'Arial-BoldMT'" font-size="12">EXPORT</text>
<text id="text378" transform="matrix(1 0 0 1 337.9939 79.5403)" fill="#222221" font-family="'Arial-BoldMT'" font-size="12"> </text>
<text id="text380" transform="matrix(1 0 0 1 341.3298 79.5403)" fill="#222221" font-family="'Arial-BoldMT'" font-size="12">collection</text>
<text id="text382" transform="matrix(1 0 0 1 283.1252 92.9465)" fill="#222221" font-family="'ArialMT'" font-size="9">(hdr from seria:@order_kol_#)</text>
<text id="text384" transform="matrix(1 0 0 1 403.8064 92.9465)" fill="#222221" font-family="'ArialMT'" font-size="9"> </text>
<g id="g394">
	<g>
		<defs>
			<rect id="SVGID_15_" x="0" y="0.056" width="566.93" height="246.613"/>
		</defs>
		<clipPath id="SVGID_16_">
			<use xlink:href="#SVGID_15_"  overflow="visible"/>
		</clipPath>
		
			<path id="path392" inkscape:connector-curvature="0" clip-path="url(#SVGID_16_)" fill="none" stroke="#222221" stroke-width="0.5" d="
			M292.218,65.219c0,0-14.172,0-14.172,14.173v4.604c0,0,0,14.173,14.172,14.173h102.493c0,0,14.174,0,14.174-14.173v-4.604
			c0,0,0-14.173-14.174-14.173H292.218z"/>
	</g>
</g>
<line id="line396" fill="none" stroke="#222221" x1="273.543" y1="84.339" x2="413.121" y2="83.861"/>
<polygon id="polygon398" fill="#222221" points="411.58,86.418 418.583,83.843 411.562,81.314 "/>
<g id="g408">
	<g>
		<defs>
			<rect id="SVGID_17_" x="0" y="0.056" width="566.93" height="246.613"/>
		</defs>
		<clipPath id="SVGID_18_">
			<use xlink:href="#SVGID_17_"  overflow="visible"/>
		</clipPath>
		<path id="path406" inkscape:connector-curvature="0" clip-path="url(#SVGID_18_)" fill="#AF1D1F" d="M271.654,87.646
			c2.349,0,4.252-1.903,4.252-4.252c0-2.348-1.903-4.252-4.252-4.252c-2.348,0-4.252,1.904-4.252,4.252
			C267.402,85.742,269.306,87.646,271.654,87.646"/>
	</g>
</g>
<rect id="rect410" x="553.08" y="76.666" fill="#222221" width="8.214" height="8.213"/>
<rect id="rect412" x="553.08" y="76.666" fill="none" stroke="#222221" width="8.214" height="8.213"/>
<line id="line414" fill="none" stroke="#222221" x1="557.256" y1="214.781" x2="557.256" y2="155.329"/>
<polygon id="polygon416" fill="#222221" points="559.808,156.878 557.256,149.866 554.703,156.878 "/>
<rect id="rect418" x="227.803" y="207.249" fill="#9BCDF2" width="106.148" height="31.031"/>
<text id="text420" transform="matrix(0.9712 0 0 1 230.6218 220.6399)" fill="#222221" font-family="'ArialMT'" font-size="9">order-#.(barcode-type).</text>
<text id="text422" transform="matrix(1 0 0 1 265.8743 231.4407)" fill="#222221" font-family="'ArialMT'" font-size="9">zint.csv</text>
<rect id="rect424" x="227.803" y="207.249" fill="none" stroke="#222221" width="106.148" height="31.031"/>
<g id="g434">
	<g>
		<defs>
			<rect id="SVGID_19_" x="0" y="0.056" width="566.93" height="246.613"/>
		</defs>
		<clipPath id="SVGID_20_">
			<use xlink:href="#SVGID_19_"  overflow="visible"/>
		</clipPath>
		<path id="path432" inkscape:connector-curvature="0" clip-path="url(#SVGID_20_)" fill="#303880" d="M336.437,227.347
			c2.348,0,4.252-1.904,4.252-4.252s-1.904-4.252-4.252-4.252s-4.252,1.904-4.252,4.252S334.09,227.347,336.437,227.347"/>
	</g>
</g>
<line id="line436" fill="none" stroke="#222221" x1="335.965" y1="221.833" x2="476.961" y2="221.56"/>
<polygon id="polygon438" fill="#222221" points="475.414,224.115 482.422,221.548 475.404,219.011 "/>
<text transform="matrix(1 0 0 1 350.8689 218.8391)" fill="#222221" font-family="'Arial-BoldMT'" font-size="12">BARCODES</text>
<text id="text444" transform="matrix(1 0 0 1 416.8806 218.8391)" fill="#222221" font-family="'Arial-BoldMT'" font-size="12"> by Zint</text>
<text id="text446" transform="matrix(1 0 0 1 348.6335 231.7454)" fill="#222221" font-family="'ArialMT'" font-size="9">(get data - barcode values)</text>
<text id="text448" transform="matrix(1 0 0 1 460.8005 231.7454)" fill="#222221" font-family="'ArialMT'" font-size="9"> </text>
<g>
	<defs>
		<rect id="SVGID_21_" x="-28.001" y="0.171" width="606.2" height="246.484"/>
	</defs>
	<clipPath id="SVGID_22_">
		<use xlink:href="#SVGID_21_"  overflow="visible"/>
	</clipPath>
	
		<path id="path456" inkscape:connector-curvature="0" clip-path="url(#SVGID_22_)" fill="none" stroke="#222221" stroke-width="0.5" d="
		M342.618,223.317c0,0,0,14.165,15.155,14.165h100.499c0,0,15.156,0,15.156-14.165v-4.061c0,0,0-14.167-15.156-14.167H357.773
		c0,0-15.155,0-15.155,14.167V223.317z"/>
</g>
<g>
	<defs>
		<rect id="SVGID_23_" x="0" y="0.056" width="566.93" height="246.613"/>
	</defs>
	<clipPath id="SVGID_24_">
		<use xlink:href="#SVGID_23_"  overflow="visible"/>
	</clipPath>
	
		<path id="path458" inkscape:connector-curvature="0" clip-path="url(#SVGID_24_)" fill="none" stroke="#222221" stroke-width="0.5" d="
		M138.365,209.267c0,0-13,0-13,13v2.412c0,0,0,13,13,13h68.13c0,0,13,0,13-13v-2.412c0,0,0-13-13-13H138.365z"/>
</g>
<line id="line462" fill="none" stroke="#222221" x1="121.571" y1="224.747" x2="222.409" y2="224.747"/>
<polygon id="polygon464" fill="#222221" points="220.859,227.3 227.871,224.747 220.859,222.198 "/>
<text id="text466" transform="matrix(1 0 0 1 157.6887 233.9934)" fill="#222221" font-family="'ArialMT'" font-size="9">(no hdr)</text>
<text transform="matrix(1 0 0 1 132.3079 220.4446)" fill="#222221" font-family="'Arial-BoldMT'" font-size="12">EXPORT</text>
<text id="text474" transform="matrix(1 0 0 1 183.6438 220.4446)" fill="#222221" font-family="'Arial-BoldMT'" font-size="12"> </text>
<text id="text476" transform="matrix(1 0 0 1 186.9797 220.4446)" fill="#222221" font-family="'Arial-BoldMT'" font-size="12">seria</text>
<line id="line478" fill="none" stroke="#222221" x1="121.289" y1="185.913" x2="121.289" y2="218.435"/>
<polygon id="polygon480" fill="#222221" points="118.736,216.886 121.289,223.898 123.84,216.886 "/>
<g id="g490">
	<g>
		<defs>
			<rect id="SVGID_25_" x="0" y="0.056" width="566.93" height="246.613"/>
		</defs>
		<clipPath id="SVGID_26_">
			<use xlink:href="#SVGID_25_"  overflow="visible"/>
		</clipPath>
		<path id="path488" inkscape:connector-curvature="0" clip-path="url(#SVGID_26_)" fill="#303880" d="M120.863,229.568
			c2.348,0,4.252-1.903,4.252-4.252c0-2.348-1.904-4.252-4.252-4.252c-2.349,0-4.252,1.904-4.252,4.252
			C116.611,227.664,118.514,229.568,120.863,229.568"/>
	</g>
</g>
<rect id="rect492" x="492.371" y="209.894" fill="#9BCDF2" width="60.796" height="15.535"/>
<text id="text494" transform="matrix(1 0 0 1 513.7615 220.9387)" fill="#222221" font-family="'ArialMT'" font-size="9">*eps</text>
<rect id="rect496" x="492.371" y="209.894" fill="none" stroke="#222221" width="60.796" height="15.535"/>
<rect id="rect498" x="487.646" y="213.673" fill="#9BCDF2" width="60.795" height="15.535"/>
<text id="text500" transform="matrix(1 0 0 1 509.0369 224.718)" fill="#222221" font-family="'ArialMT'" font-size="9">*eps</text>
<rect id="rect502" x="487.646" y="213.673" fill="none" stroke="#222221" width="60.795" height="15.535"/>
<rect id="rect504" x="482.922" y="218.398" fill="#9BCDF2" width="60.795" height="15.535"/>
<text id="text506" transform="matrix(1 0 0 1 504.3123 229.4426)" fill="#222221" font-family="'ArialMT'" font-size="9">*eps</text>
<rect id="rect508" x="482.922" y="218.398" fill="none" stroke="#222221" width="60.795" height="15.535"/>
<rect id="rect510" x="552.844" y="214.618" fill="#222221" width="8.213" height="8.213"/>
<rect id="rect512" x="552.844" y="214.618" fill="none" stroke="#222221" width="8.213" height="8.213"/>
<rect id="rect514" x="12.371" y="90.933" fill="#9BCDF2" width="37.551" height="10.339"/>
<text id="text516" transform="matrix(1 0 0 1 21.3943 99.3792)" fill="#222221" font-family="'ArialMT'" font-size="9">*.csv</text>
<rect id="rect518" x="12.371" y="90.933" fill="none" stroke="#222221" width="37.551" height="10.339"/>
<g id="g528">
	<g>
		<defs>
			<rect id="SVGID_27_" x="0" y="0.056" width="566.93" height="246.613"/>
		</defs>
		<clipPath id="SVGID_28_">
			<use xlink:href="#SVGID_27_"  overflow="visible"/>
		</clipPath>
		
			<path id="path526" inkscape:connector-curvature="0" clip-path="url(#SVGID_28_)" fill="none" stroke="#222221" stroke-width="0.5" d="
			M24.404,101.219c0,0-14.173,0-14.173,14.173v10.839c0,0,0,14.173,14.173,14.173h60.917c0,0,14.174,0,14.174-14.173v-10.839
			c0,0,0-14.173-14.174-14.173H24.404z"/>
	</g>
</g>
<line id="line530" fill="none" stroke="#222221" x1="10.925" y1="116.37" x2="103.731" y2="116.37"/>
<polygon id="polygon532" fill="#222221" points="102.181,118.922 109.193,116.37 102.181,113.818 "/>
<text id="text538" transform="matrix(1 0 0 1 55.9514 112.5403)" fill="#222221" font-family="'Arial-BoldMT'" font-size="12"> </text>
<g id="g382" transform="translate(-4)">
	<text transform="matrix(1 0 0 1 19.7273 112.5403)" fill="#222221" font-family="'ArialMT'" font-size="12">SERIA</text>
	<text transform="matrix(1 0 0 1 59.2874 112.5403)" fill="#222221" font-family="'Arial-BoldMT'" font-size="12">import</text>
</g>
<text id="text542" transform="matrix(1 0 0 1 10.7131 125.4739)" fill="#222221" font-family="'ArialMT'" font-size="9">(get values by Row </text>
<text id="text544" transform="matrix(1 0 0 1 17.4719 136.2737)" fill="#222221" font-family="'ArialMT'" font-size="9">or Kol, skip hdr)</text>
<text id="text546" transform="matrix(1 0 0 1 86.49 136.2737)" fill="#222221" font-family="'ArialMT'" font-size="9"> </text>
<g id="g556" transform="translate(62.109457,10.917158)">
	<g>
		<defs>
			<rect id="SVGID_29_" x="0" y="0.056" width="566.93" height="246.613"/>
		</defs>
		<clipPath id="SVGID_30_">
			<use xlink:href="#SVGID_29_"  overflow="visible"/>
		</clipPath>
		<path id="path554" inkscape:connector-curvature="0" clip-path="url(#SVGID_30_)" fill="#AF1D1F" d="M13.288,113.252
			c2.349,0,4.252-1.904,4.252-4.252s-1.903-4.252-4.252-4.252c-2.348,0-4.252,1.905-4.252,4.252
			C9.036,111.348,10.94,113.252,13.288,113.252"/>
	</g>
</g>
<rect id="rect558" x="8.828" y="8.445" fill="#9BCDF2" width="56.826" height="16.575"/>
<text id="text560" transform="matrix(1 0 0 1 23.9866 20.009)" fill="#222221" font-family="'ArialMT'" font-size="9">pers.js</text>
<rect id="rect562" x="8.828" y="8.445" fill="none" stroke="#222221" width="56.826" height="16.575"/>
<g id="g576">
	<g>
		<defs>
			<rect id="SVGID_31_" x="0" y="0.056" width="566.93" height="246.613"/>
		</defs>
		<clipPath id="SVGID_32_">
			<use xlink:href="#SVGID_31_"  overflow="visible"/>
		</clipPath>
		<path id="path570" inkscape:connector-curvature="0" clip-path="url(#SVGID_32_)" fill="#303880" d="M9.745,21.74
			c2.348,0,4.252-1.904,4.252-4.253c0-2.348-1.904-4.252-4.252-4.252c-2.349,0-4.252,1.904-4.252,4.252
			C5.493,19.836,7.396,21.74,9.745,21.74"/>
	</g>
	<g>
		<defs>
			<rect id="SVGID_33_" x="0" y="0.056" width="566.93" height="246.613"/>
		</defs>
		<clipPath id="SVGID_34_">
			<use xlink:href="#SVGID_33_"  overflow="visible"/>
		</clipPath>
		<path id="path572" inkscape:connector-curvature="0" clip-path="url(#SVGID_34_)" fill="#303880" d="M10.453,36.386
			c2.349,0,4.252-1.904,4.252-4.252s-1.903-4.252-4.252-4.252c-2.348,0-4.252,1.904-4.252,4.252S8.105,36.386,10.453,36.386"/>
	</g>
	<g>
		<defs>
			<rect id="SVGID_35_" x="0" y="0.056" width="566.93" height="246.613"/>
		</defs>
		<clipPath id="SVGID_36_">
			<use xlink:href="#SVGID_35_"  overflow="visible"/>
		</clipPath>
		
			<path id="path574" inkscape:connector-curvature="0" clip-path="url(#SVGID_36_)" fill="none" stroke="#222221" stroke-width="0.5" d="
			M23.458,25.77c0,0-14.173,0-14.173,14.173v23.312c0,0,0,14.173,14.173,14.173h62.809c0,0,14.173,0,14.173-14.173V39.943
			c0,0,0-14.173-14.173-14.173H23.458z"/>
	</g>
</g>
<line id="line578" fill="none" stroke="#222221" x1="9.981" y1="40.26" x2="105.621" y2="40.26"/>
<polygon id="polygon580" fill="#222221" points="104.071,42.812 111.083,40.26 104.071,37.708 "/>
<text id="text584" transform="matrix(1 0 0 1 17.7395 36.3352)" fill="#222221" font-family="'Arial-BoldMT'" font-size="12">SERIA</text>
<text transform="matrix(1 0 0 1 55.9636 36.3352)" fill="#222221" font-family="'Arial-BoldMT'" font-size="12"> make</text>
<text id="text588" transform="matrix(0.96 0 0 1 12.3494 49.3635)" fill="#222221" font-family="'ArialMT'" font-size="9">(set values of seria:  </text>
<text id="text590" transform="matrix(1 0 0 1 13.821 60.1643)" fill="#222221" font-family="'ArialMT'" font-size="9">from,values, digits, </text>
<text id="text592" transform="matrix(1.0009 0 0 1 12.4949 70.9641)" fill="#222221" font-family="'ArialMT'" font-size="9">step+/-, pr#####sc)</text>
<text id="text594" transform="matrix(1 0 0 1 41.7341 224.0266)" fill="#222221" font-family="'ArialMT'" font-size="9">by K</text>
<rect id="rect596" x="9.004" y="140.304" fill="none" stroke="#222221" width="89.709" height="90.416"/>
<rect id="rect598" x="15.454" y="147.956" fill="#FFF49D" width="15.795" height="10.34"/>
<text id="text600" transform="matrix(1 0 0 1 16.1243 156.7668)" fill="#222221" font-family="'ArialMT'" font-size="10">hdr</text>
<rect id="rect602" x="15.454" y="147.956" fill="none" stroke="#222221" stroke-width="0.9836" width="15.282" height="10.34"/>
<rect id="rect604" x="15.454" y="158.587" fill="#9BCDF2" width="15.795" height="10.338"/>
<rect id="rect606" x="15.454" y="158.587" fill="none" stroke="#222221" width="15.795" height="10.338"/>
<rect id="rect608" x="15.454" y="169.216" fill="#9BCDF2" width="15.795" height="10.34"/>
<rect id="rect610" x="15.454" y="169.216" fill="none" stroke="#222221" width="15.795" height="10.34"/>
<rect id="rect612" x="15.454" y="179.847" fill="#9BCDF2" width="15.795" height="10.338"/>
<rect id="rect614" x="15.454" y="179.847" fill="none" stroke="#222221" width="15.795" height="10.338"/>
<rect id="rect616" x="15.454" y="190.476" fill="#9BCDF2" width="15.795" height="10.34"/>
<rect id="rect618" x="15.454" y="190.476" fill="none" stroke="#222221" width="15.795" height="10.34"/>
<rect id="rect620" x="30.736" y="147.956" fill="#FFF49D" width="15.795" height="10.34"/>
<text id="text622" transform="matrix(1 0 0 1 31.4075 156.7668)" fill="#222221" font-family="'ArialMT'" font-size="10">hdr</text>
<rect id="rect624" x="30.736" y="147.956" fill="none" stroke="#222221" width="15.795" height="10.34"/>
<rect id="rect626" x="30.736" y="158.587" fill="#9BCDF2" width="15.795" height="10.338"/>
<rect id="rect628" x="30.736" y="158.587" fill="none" stroke="#222221" width="15.795" height="10.338"/>
<rect id="rect630" x="30.736" y="169.216" fill="#9BCDF2" width="15.795" height="10.34"/>
<rect id="rect632" x="30.736" y="169.216" fill="none" stroke="#222221" width="15.795" height="10.34"/>
<rect id="rect634" x="30.736" y="179.847" fill="#9BCDF2" width="15.795" height="10.338"/>
<rect id="rect636" x="30.736" y="179.847" fill="none" stroke="#222221" width="15.795" height="10.338"/>
<rect id="rect638" x="30.736" y="190.476" fill="#9BCDF2" width="15.795" height="10.34"/>
<rect id="rect640" x="30.736" y="190.476" fill="none" stroke="#222221" width="15.795" height="10.34"/>
<rect id="rect642" x="46.634" y="147.956" fill="#FFF49D" width="15.796" height="10.34"/>
<text id="text644" transform="matrix(1 0 0 1 47.3054 156.7668)" fill="#222221" font-family="'ArialMT'" font-size="10">hdr</text>
<rect id="rect646" x="46.634" y="147.956" fill="none" stroke="#222221" width="15.796" height="10.34"/>
<rect id="rect648" x="46.634" y="158.587" fill="#9BCDF2" width="15.796" height="10.338"/>
<rect id="rect650" x="46.634" y="158.587" fill="none" stroke="#222221" width="15.796" height="10.338"/>
<rect id="rect652" x="46.634" y="169.216" fill="#9BCDF2" width="15.796" height="10.34"/>
<rect id="rect654" x="46.634" y="169.216" fill="none" stroke="#222221" width="15.796" height="10.34"/>
<rect id="rect656" x="46.634" y="179.847" fill="#9BCDF2" width="15.796" height="10.338"/>
<rect id="rect658" x="46.634" y="179.847" fill="none" stroke="#222221" width="15.796" height="10.338"/>
<rect id="rect660" x="46.634" y="190.476" fill="#9BCDF2" width="15.796" height="10.34"/>
<rect id="rect662" x="46.634" y="190.476" fill="none" stroke="#222221" width="15.796" height="10.34"/>
<rect id="rect664" x="63.076" y="147.956" fill="#FFF49D" width="15.795" height="10.34"/>
<text id="text666" transform="matrix(1 0 0 1 63.7463 156.7668)" fill="#222221" font-family="'ArialMT'" font-size="10">hdr</text>
<rect id="rect668" x="63.076" y="147.956" fill="none" stroke="#222221" width="15.795" height="10.34"/>
<rect id="rect670" x="63.076" y="158.587" fill="#9BCDF2" width="15.795" height="10.338"/>
<rect id="rect672" x="63.076" y="158.587" fill="none" stroke="#222221" width="15.795" height="10.338"/>
<rect id="rect674" x="63.076" y="169.216" fill="#9BCDF2" width="15.795" height="10.34"/>
<rect id="rect676" x="63.076" y="169.216" fill="none" stroke="#222221" width="15.795" height="10.34"/>
<rect id="rect678" x="63.076" y="179.847" fill="#9BCDF2" width="15.795" height="10.338"/>
<rect id="rect680" x="63.076" y="179.847" fill="none" stroke="#222221" width="15.795" height="10.338"/>
<rect id="rect682" x="63.076" y="190.476" fill="#9BCDF2" width="15.795" height="10.34"/>
<rect id="rect684" x="63.076" y="190.476" fill="none" stroke="#222221" width="15.795" height="10.34"/>
<line id="line686" fill="none" stroke="#222221" x1="36.319" y1="210.669" x2="28.787" y2="214.083"/>
<polygon id="polygon688" fill="#222221" points="29.144,211.12 23.811,216.339 31.251,215.769 "/>
<line id="line690" fill="none" stroke="#222221" x1="56.362" y1="211.044" x2="28.886" y2="221.974"/>
<polygon id="polygon692" fill="#222221" points="29.383,219.029 23.811,223.993 31.27,223.771 "/>
<path id="path694" inkscape:connector-curvature="0" fill="#222221" d="M91.653,198.763h-1.646v1.646h1.646V198.763z
	 M88.319,198.763h-1.646v1.646h1.646V198.763z M84.985,198.763h-1.646v1.646h1.646V198.763z"/>
</svg>
